<?xml version="1.0" encoding="UTF-8" standalone="no"?>
<svg
   xmlns:dc="http://purl.org/dc/elements/1.1/"
   xmlns:cc="http://creativecommons.org/ns#"
   xmlns:rdf="http://www.w3.org/1999/02/22-rdf-syntax-ns#"
   xmlns:svg="http://www.w3.org/2000/svg"
   xmlns="http://www.w3.org/2000/svg"
   xmlns:sodipodi="http://sodipodi.sourceforge.net/DTD/sodipodi-0.dtd"
   xmlns:inkscape="http://www.inkscape.org/namespaces/inkscape"
   width="210mm"
   height="297mm"
   viewBox="0 0 210 297"
   version="1.1"
   id="svg8"
   inkscape:version="1.0.1 (3bc2e813f5, 2020-09-07)"
   sodipodi:docname="self.svg">
  <defs
     id="defs2" />
  <sodipodi:namedview
     id="base"
     pagecolor="#ffffff"
     bordercolor="#666666"
     borderopacity="1.0"
     inkscape:pageopacity="0.0"
     inkscape:pageshadow="2"
     inkscape:zoom="0.49497475"
     inkscape:cx="577.80725"
     inkscape:cy="488.55017"
     inkscape:document-units="mm"
     inkscape:current-layer="layer1"
     inkscape:document-rotation="0"
     showgrid="false"
     inkscape:snap-global="false"
     inkscape:window-width="1267"
     inkscape:window-height="721"
     inkscape:window-x="26"
     inkscape:window-y="25"
     inkscape:window-maximized="0" />
  <metadata
     id="metadata5">
    <rdf:RDF>
      <cc:Work
         rdf:about="">
        <dc:format>image/svg+xml</dc:format>
        <dc:type
           rdf:resource="http://purl.org/dc/dcmitype/StillImage" />
        <dc:title></dc:title>
      </cc:Work>
    </rdf:RDF>
  </metadata>
  <g
     inkscape:label="Layer 1"
     inkscape:groupmode="layer"
     id="layer1">
    <rect
       style="fill:#ffffff;fill-opacity:1;fill-rule:evenodd;stroke:#000000;stroke-width:1.7;stroke-linecap:round;stroke-miterlimit:4;stroke-dasharray:none;stroke-dashoffset:248.504;stroke-opacity:1;paint-order:stroke markers fill"
       id="rect921"
       width="626.47974"
       height="307.14047"
       x="-23.519733"
       y="-3.8465374" />
    <circle
       style="fill:#008080;fill-opacity:1;fill-rule:evenodd;stroke:#ffe6d5;stroke-width:0;stroke-linecap:round;stroke-miterlimit:4;stroke-dasharray:none;stroke-dashoffset:248.504;stroke-opacity:1;paint-order:stroke markers fill"
       id="path919"
       cx="101.99751"
       cy="139.30247"
       r="119.73675" />
    <rect
       style="fill:#ffb380;fill-opacity:1;fill-rule:evenodd;stroke:#552200;stroke-width:0;stroke-linecap:round;stroke-miterlimit:4;stroke-dasharray:none;stroke-dashoffset:248.504;stroke-opacity:1;paint-order:stroke markers fill"
       id="rect893"
       width="55.681213"
       height="72.695061"
       x="-128.08348"
       y="171.80579"
       transform="scale(-1,1)" />
    <path
       style="fill:#ffa171;fill-opacity:1;stroke:#ffa171;stroke-width:0.270035px;stroke-linecap:butt;stroke-linejoin:miter;stroke-opacity:1"
       d="m 163.49392,162.82233 v -58.79747 l -103.010256,-1.33631 -0.83522,42.22728 c 0.8251,24.61896 5.724877,46.17095 47.885826,56.92664 14.1382,1.71516 28.94216,5.7311 39.53368,-4.8107 11.631,-12.38802 13.33408,-23.18763 16.42597,-34.20944 z"
       id="path847"
       sodipodi:nodetypes="ccccccc" />
    <ellipse
       style="fill:#ffa171;fill-opacity:1;fill-rule:evenodd;stroke:#ffa171;stroke-width:0.307087;stroke-linecap:round;stroke-miterlimit:4;stroke-dasharray:none;stroke-dashoffset:248.504;stroke-opacity:1;paint-order:stroke markers fill"
       id="path849"
       cx="-105.23743"
       cy="96.563103"
       rx="58.952026"
       ry="56.258049"
       transform="scale(-1,1)" />
    <path
       style="fill:#ffa171;fill-opacity:1;stroke:#ffa171;stroke-width:0.270035px;stroke-linecap:butt;stroke-linejoin:miter;stroke-opacity:1"
       d="m 57.500687,118.68601 c -9.491937,-1.45263 -18.086091,-2.1097 -14.174124,8.31522 6.843967,17.37649 12.222564,16.46564 18.111361,21.92194 l 3.937257,-24.94566 z"
       id="path857"
       sodipodi:nodetypes="ccccc" />
    <path
       style="fill:#a05a2c;stroke:#a05a2c;stroke-width:0.270035px;stroke-linecap:butt;stroke-linejoin:miter;stroke-opacity:1"
       d="m 55.532037,126.81225 c -2.81676,-1.96071 -4.130267,-6.32657 -8.465094,-5.85845 -1.0006,0.76045 -3.38868,1.14036 -0.98431,2.83473 5.754247,-0.99224 6.302504,2.01358 9.449404,3.02372 z"
       id="path859"
       sodipodi:nodetypes="cccc" />
    <ellipse
       style="fill:#a05a2c;fill-opacity:1;fill-rule:evenodd;stroke:#a05a2c;stroke-width:0.297655;stroke-linecap:round;stroke-miterlimit:4;stroke-dasharray:none;stroke-dashoffset:248.504;stroke-opacity:1;paint-order:stroke markers fill"
       id="path861"
       cx="50.794308"
       cy="98.318817"
       rx="1.3295598"
       ry="1.9040495"
       transform="matrix(-0.06355528,0.99797832,0.59473475,0.803922,0,0)" />
    <circle
       style="fill:#502d16;fill-opacity:1;fill-rule:evenodd;stroke:#502d16;stroke-width:0.306182;stroke-linecap:round;stroke-miterlimit:4;stroke-dasharray:none;stroke-dashoffset:248.504;stroke-opacity:1;paint-order:stroke markers fill"
       id="path863"
       cx="-146.01021"
       cy="116.94737"
       rx="4.3309822"
       ry="4.1576095"
       transform="scale(-1,1)" />
    <circle
       style="fill:#502d16;fill-opacity:1;fill-rule:evenodd;stroke:#502d16;stroke-width:0.306182;stroke-linecap:round;stroke-miterlimit:4;stroke-dasharray:none;stroke-dashoffset:248.504;stroke-opacity:1;paint-order:stroke markers fill"
       id="circle867"
       cx="-107.425"
       cy="116.94737"
       rx="4.3309822"
       ry="4.1576095"
       transform="scale(-1,1)" />
    <path
       style="fill:#502d16;stroke:#502d16;stroke-width:6.12363;stroke-linecap:round;stroke-linejoin:miter;stroke-miterlimit:4;stroke-dasharray:none;stroke-opacity:1"
       d="m 154.85801,101.73509 c -6.22262,-3.273567 -12.27203,-4.031237 -18.20949,-3.162587"
       id="path869"
       sodipodi:nodetypes="cc" />
    <path
       style="fill:#502d16;stroke:#502d16;stroke-width:6.12363;stroke-linecap:round;stroke-linejoin:miter;stroke-miterlimit:4;stroke-dasharray:none;stroke-opacity:1"
       d="m 110.01259,93.848496 c -7.0539,0.449857 -12.620775,2.943885 -17.22643,6.759264"
       id="path871"
       sodipodi:nodetypes="cc" />
    <path
       style="fill:#fc794d;fill-opacity:1;stroke:#fa683c;stroke-width:0.270035px;stroke-linecap:butt;stroke-linejoin:miter;stroke-opacity:1"
       d="m 131.9148,119.06398 5.90588,15.49654 c 0.84944,2.28092 0.0524,3.37642 -1.18118,4.15761 -5.6434,1.62142 -11.28679,2.26778 -16.93019,0.37797 -2.80474,-1.29409 -2.19671,-3.13422 -1.96863,-4.91354 l 6.29961,-24.18973 c 1.59239,-3.5108 2.25172,-1.19949 3.14981,-0.37797 z"
       id="path873"
       sodipodi:nodetypes="cccccccc" />
    <path
       style="fill:#ffffff;stroke:#ffffff;stroke-width:0.357363px;stroke-linecap:butt;stroke-linejoin:miter;stroke-opacity:1"
       d="m 151.74075,157.9849 -24.7597,7.47111 -27.413157,-9.84974 24.965557,-9.84977 z"
       id="path891" />
    <path
       style="fill:#a05a2c;stroke:#552200;stroke-width:0;stroke-linecap:butt;stroke-linejoin:miter;stroke-miterlimit:4;stroke-dasharray:none;stroke-opacity:1"
       d="m 151.99277,145.3558 c -15.26728,-3.70119 -30.84413,-4.13351 -46.85336,0 l -20.670581,19.84314 c 17.006421,-1.78051 34.154821,-4.04455 43.297051,-12.68815 7.69902,7.7099 22.2577,9.52701 35.72804,10.31154 z"
       id="path889"
       sodipodi:nodetypes="cccccc" />
    <path
       style="fill:#1a1a1a;stroke:#000000;stroke-width:0.270035px;stroke-linecap:butt;stroke-linejoin:miter;stroke-opacity:1"
       d="m 178.85525,256.89828 -50.54398,-29.3441 c -18.68067,22.0695 -40.477921,19.47099 -56.192162,-1.17467 L 9.1036243,251.82273 C 162.03078,329.91656 155.80384,281.79829 178.85525,256.89828 Z"
       id="path895"
       sodipodi:nodetypes="ccccc" />
    <path
       style="fill:#d38d5f;stroke:#d38d5f;stroke-width:0.270035px;stroke-linecap:butt;stroke-linejoin:miter;stroke-opacity:1"
       d="m 63.012821,140.98592 c 6.928237,41.02507 34.305462,57.05404 54.732289,59.11936 18.00902,3.05234 29.41682,-4.69442 38.28084,-14.833 -5.50637,7.80986 -10.15557,16.44256 -21.71567,18.44103 -47.763321,0.0378 -58.761645,-14.23249 -68.487869,-28.99785 -5.125107,-7.8964 -5.745857,-17.95482 -6.820967,-27.79517 l 0.55681,-40.62371 z"
       id="path897"
       sodipodi:nodetypes="cccccccc" />
    <path
       style="fill:#d38d5f;stroke:#d38d5f;stroke-width:0.270035px;stroke-linecap:butt;stroke-linejoin:miter;stroke-opacity:1"
       d="m 104.24242,199.70439 c -11.324494,1.21916 -21.898608,10.3622 -31.738282,27.26065 v -46.50346 z"
       id="path899"
       sodipodi:nodetypes="cccc" />
    <text
       xml:space="preserve"
       style="font-size:40.9161px;line-height:1.25;font-family:sans-serif;fill:#000000;stroke-width:2.55726;"
       x="254.04382"
       y="164.72781"
       id="text925"><tspan
         sodipodi:role="line"
         id="tspan923"
         x="254.04382"
         y="164.72781"
         style="font-style:normal;font-variant:normal;font-weight:normal;font-stretch:normal;font-family:'Franklin Gothic Medium';-inkscape-font-specification:'Franklin Gothic Medium, ';fill:#000000;stroke-width:2.55726;">DANIEL MURPHY</tspan></text>
    <path
       style="fill:#eb9d75;fill-opacity:1;stroke:#ffa171;stroke-width:0.264583px;stroke-linecap:butt;stroke-linejoin:miter;stroke-opacity:1"
       d="M 156.0854,70.559154 C 128.71155,57.069781 98.300081,53.318277 85.526247,71.628232 66.320298,83.624382 64.598927,106.11128 58.799295,126.15122 35.155719,102.4727 48.410988,81.869075 57.730217,60.937451 69.549165,43.351295 87.485897,39.749878 114.9259,40.624968 c 21.20287,2.60359 38.93606,16.587296 41.1595,29.934186 z"
       id="path927"
       sodipodi:nodetypes="cccccc" />
  </g>
</svg>
